ply
format ascii 1.0
comment Created by Blender 2.78 (sub 0) - www.blender.org, source file: ''
element vertex 192
property float x
property float y
property float z
property float nx
property float ny
property float nz
element face 92
property list uchar uint vertex_indices
end_header
-0.840019 1.288269 -0.904992 0.098017 0.995185 0.000000
-0.840019 1.288269 1.095008 0.098017 0.995185 0.000000
-0.644928 1.269054 1.095008 0.098017 0.995185 0.000000
-0.644928 1.269054 -0.904992 0.098017 0.995185 0.000000
-0.644928 1.269054 -0.904992 0.290285 0.956940 0.000000
-0.644928 1.269054 1.095008 0.290285 0.956940 0.000000
-0.457335 1.212149 1.095008 0.290285 0.956940 0.000000
-0.457335 1.212149 -0.904992 0.290285 0.956940 0.000000
-0.457335 1.212149 -0.904992 0.471396 0.881921 0.000000
-0.457335 1.212149 1.095008 0.471396 0.881921 0.000000
-0.284449 1.119739 1.095008 0.471396 0.881921 0.000000
-0.284449 1.119739 -0.904992 0.471396 0.881921 0.000000
-0.284449 1.119739 -0.904992 0.634393 0.773010 0.000000
-0.284449 1.119739 1.095008 0.634393 0.773010 0.000000
-0.132912 0.995376 1.095008 0.634393 0.773010 0.000000
-0.132912 0.995376 -0.904992 0.634393 0.773010 0.000000
-0.132912 0.995376 -0.904992 0.773010 0.634393 0.000000
-0.132912 0.995376 1.095008 0.773010 0.634393 0.000000
-0.008549 0.843839 1.095008 0.773010 0.634393 0.000000
-0.008549 0.843839 -0.904992 0.773010 0.634393 0.000000
-0.008549 0.843839 -0.904992 0.881921 0.471396 0.000000
-0.008549 0.843839 1.095008 0.881921 0.471396 0.000000
0.083861 0.670952 1.095008 0.881921 0.471396 0.000000
0.083861 0.670952 -0.904992 0.881921 0.471396 0.000000
0.083861 0.670952 -0.904992 0.956940 0.290285 0.000000
0.083861 0.670952 1.095008 0.956940 0.290285 0.000000
0.140767 0.483359 1.095008 0.956940 0.290285 0.000000
0.140767 0.483359 -0.904992 0.956940 0.290285 0.000000
0.140767 0.483359 -0.904992 0.995185 0.098017 0.000000
0.140767 0.483359 1.095008 0.995185 0.098017 0.000000
0.159981 0.288269 1.095008 0.995185 0.098017 0.000000
0.159981 0.288269 -0.904992 0.995185 0.098017 0.000000
0.159981 0.288269 -0.904992 0.995185 -0.098017 0.000000
0.159981 0.288269 1.095008 0.995185 -0.098017 0.000000
0.140767 0.093179 1.095008 0.995185 -0.098017 0.000000
0.140767 0.093179 -0.904992 0.995185 -0.098017 0.000000
0.140767 0.093179 -0.904992 0.956940 -0.290285 0.000000
0.140767 0.093179 1.095008 0.956940 -0.290285 0.000000
0.083861 -0.094414 1.095008 0.956940 -0.290285 0.000000
0.083861 -0.094414 -0.904992 0.956940 -0.290285 0.000000
0.083861 -0.094414 -0.904992 0.881921 -0.471396 0.000000
0.083861 -0.094414 1.095008 0.881921 -0.471396 0.000000
-0.008549 -0.267301 1.095008 0.881921 -0.471396 0.000000
-0.008549 -0.267301 -0.904992 0.881921 -0.471396 0.000000
-0.008549 -0.267301 -0.904992 0.773010 -0.634393 0.000000
-0.008549 -0.267301 1.095008 0.773010 -0.634393 0.000000
-0.132912 -0.418838 1.095008 0.773010 -0.634393 0.000000
-0.132912 -0.418838 -0.904992 0.773010 -0.634393 0.000000
-0.132912 -0.418838 -0.904992 0.634393 -0.773010 0.000000
-0.132912 -0.418838 1.095008 0.634393 -0.773010 0.000000
-0.284449 -0.543201 1.095008 0.634393 -0.773010 0.000000
-0.284449 -0.543201 -0.904992 0.634393 -0.773010 0.000000
-0.284449 -0.543201 -0.904992 0.471397 -0.881921 0.000000
-0.284449 -0.543201 1.095008 0.471397 -0.881921 0.000000
-0.457335 -0.635611 1.095008 0.471397 -0.881921 0.000000
-0.457335 -0.635611 -0.904992 0.471397 -0.881921 0.000000
-0.457335 -0.635611 -0.904992 0.290284 -0.956941 0.000000
-0.457335 -0.635611 1.095008 0.290284 -0.956941 0.000000
-0.644929 -0.692516 1.095008 0.290284 -0.956941 0.000000
-0.644929 -0.692516 -0.904992 0.290284 -0.956941 0.000000
-0.644929 -0.692516 -0.904992 0.098017 -0.995185 0.000000
-0.644929 -0.692516 1.095008 0.098017 -0.995185 0.000000
-0.840019 -0.711731 1.095008 0.098017 -0.995185 0.000000
-0.840019 -0.711731 -0.904992 0.098017 -0.995185 0.000000
-0.840019 -0.711731 -0.904992 -0.098018 -0.995185 0.000000
-0.840019 -0.711731 1.095008 -0.098018 -0.995185 0.000000
-1.035110 -0.692516 1.095008 -0.098018 -0.995185 0.000000
-1.035110 -0.692516 -0.904992 -0.098018 -0.995185 0.000000
-1.035110 -0.692516 -0.904992 -0.290285 -0.956940 0.000000
-1.035110 -0.692516 1.095008 -0.290285 -0.956940 0.000000
-1.222703 -0.635610 1.095008 -0.290285 -0.956940 0.000000
-1.222703 -0.635610 -0.904992 -0.290285 -0.956940 0.000000
-1.222703 -0.635610 -0.904992 -0.471397 -0.881921 0.000000
-1.222703 -0.635610 1.095008 -0.471397 -0.881921 0.000000
-1.395589 -0.543200 1.095008 -0.471397 -0.881921 0.000000
-1.395589 -0.543200 -0.904992 -0.471397 -0.881921 0.000000
-1.395589 -0.543200 -0.904992 -0.634394 -0.773010 0.000000
-1.395589 -0.543200 1.095008 -0.634394 -0.773010 0.000000
-1.547126 -0.418837 1.095008 -0.634394 -0.773010 0.000000
-1.547126 -0.418837 -0.904992 -0.634394 -0.773010 0.000000
-1.547126 -0.418837 -0.904992 -0.773011 -0.634393 0.000000
-1.547126 -0.418837 1.095008 -0.773011 -0.634393 0.000000
-1.671489 -0.267301 1.095008 -0.773011 -0.634393 0.000000
-1.671489 -0.267301 -0.904992 -0.773011 -0.634393 0.000000
-1.671489 -0.267301 -0.904992 -0.881922 -0.471396 0.000000
-1.671489 -0.267301 1.095008 -0.881922 -0.471396 0.000000
-1.763899 -0.094414 1.095008 -0.881922 -0.471396 0.000000
-1.763899 -0.094414 -0.904992 -0.881922 -0.471396 0.000000
-1.763899 -0.094414 -0.904992 -0.956941 -0.290283 0.000000
-1.763899 -0.094414 1.095008 -0.956941 -0.290283 0.000000
-1.820804 0.093180 1.095008 -0.956941 -0.290283 0.000000
-1.820804 0.093180 -0.904992 -0.956941 -0.290283 0.000000
-1.820804 0.093180 -0.904992 -0.995185 -0.098017 0.000000
-1.820804 0.093180 1.095008 -0.995185 -0.098017 0.000000
-1.840019 0.288270 1.095008 -0.995185 -0.098017 0.000000
-1.840019 0.288270 -0.904992 -0.995185 -0.098017 0.000000
-1.840019 0.288270 -0.904992 -0.995185 0.098018 0.000000
-1.840019 0.288270 1.095008 -0.995185 0.098018 0.000000
-1.820804 0.483360 1.095008 -0.995185 0.098018 0.000000
-1.820804 0.483360 -0.904992 -0.995185 0.098018 0.000000
-1.820804 0.483360 -0.904992 -0.956940 0.290286 0.000000
-1.820804 0.483360 1.095008 -0.956940 0.290286 0.000000
-1.763898 0.670954 1.095008 -0.956940 0.290286 0.000000
-1.763898 0.670954 -0.904992 -0.956940 0.290286 0.000000
-1.763898 0.670954 -0.904992 -0.881921 0.471398 0.000000
-1.763898 0.670954 1.095008 -0.881921 0.471398 0.000000
-1.671488 0.843840 1.095008 -0.881921 0.471398 0.000000
-1.671488 0.843840 -0.904992 -0.881921 0.471398 0.000000
-1.671488 0.843840 -0.904992 -0.773009 0.634395 0.000000
-1.671488 0.843840 1.095008 -0.773009 0.634395 0.000000
-1.547125 0.995377 1.095008 -0.773009 0.634395 0.000000
-1.547125 0.995377 -0.904992 -0.773009 0.634395 0.000000
-1.547125 0.995377 -0.904992 -0.634393 0.773011 0.000000
-1.547125 0.995377 1.095008 -0.634393 0.773011 0.000000
-1.395588 1.119739 1.095008 -0.634393 0.773011 0.000000
-1.395588 1.119739 -0.904992 -0.634393 0.773011 0.000000
-1.395588 1.119739 -0.904992 -0.471395 0.881922 0.000000
-1.395588 1.119739 1.095008 -0.471395 0.881922 0.000000
-1.222701 1.212149 1.095008 -0.471395 0.881922 0.000000
-1.222701 1.212149 -0.904992 -0.471395 0.881922 0.000000
-0.457335 1.212149 1.095008 0.000000 0.000000 1.000000
-0.644928 1.269054 1.095008 0.000000 0.000000 1.000000
-0.840019 1.288269 1.095008 0.000000 0.000000 1.000000
-1.035108 1.269055 1.095008 0.000000 0.000000 1.000000
-1.222701 1.212149 1.095008 0.000000 0.000000 1.000000
-1.395588 1.119739 1.095008 0.000000 0.000000 1.000000
-1.547125 0.995377 1.095008 0.000000 0.000000 1.000000
-1.671488 0.843840 1.095008 0.000000 0.000000 1.000000
-1.763898 0.670954 1.095008 0.000000 0.000000 1.000000
-1.820804 0.483360 1.095008 0.000000 0.000000 1.000000
-1.840019 0.288270 1.095008 0.000000 0.000000 1.000000
-1.820804 0.093180 1.095008 0.000000 0.000000 1.000000
-1.763899 -0.094414 1.095008 0.000000 0.000000 1.000000
-1.671489 -0.267301 1.095008 0.000000 0.000000 1.000000
-1.547126 -0.418837 1.095008 0.000000 0.000000 1.000000
-1.395589 -0.543200 1.095008 0.000000 0.000000 1.000000
-1.222703 -0.635610 1.095008 0.000000 0.000000 1.000000
-1.035110 -0.692516 1.095008 0.000000 0.000000 1.000000
-0.840019 -0.711731 1.095008 0.000000 0.000000 1.000000
-0.644929 -0.692516 1.095008 0.000000 0.000000 1.000000
-0.457335 -0.635611 1.095008 0.000000 0.000000 1.000000
-0.284449 -0.543201 1.095008 0.000000 0.000000 1.000000
-0.132912 -0.418838 1.095008 0.000000 0.000000 1.000000
-0.008549 -0.267301 1.095008 0.000000 0.000000 1.000000
0.083861 -0.094414 1.095008 0.000000 0.000000 1.000000
0.140767 0.093179 1.095008 0.000000 0.000000 1.000000
0.159981 0.288269 1.095008 0.000000 0.000000 1.000000
0.140767 0.483359 1.095008 0.000000 0.000000 1.000000
0.083861 0.670952 1.095008 0.000000 0.000000 1.000000
-0.008549 0.843839 1.095008 0.000000 0.000000 1.000000
-0.132912 0.995376 1.095008 0.000000 0.000000 1.000000
-0.284449 1.119739 1.095008 0.000000 0.000000 1.000000
-1.222701 1.212149 -0.904992 -0.290283 0.956941 0.000000
-1.222701 1.212149 1.095008 -0.290283 0.956941 0.000000
-1.035108 1.269055 1.095008 -0.290283 0.956941 0.000000
-1.035108 1.269055 -0.904992 -0.290283 0.956941 0.000000
-0.840019 1.288269 1.095008 -0.098016 0.995185 0.000000
-0.840019 1.288269 -0.904992 -0.098016 0.995185 0.000000
-1.035108 1.269055 -0.904992 -0.098016 0.995185 0.000000
-1.035108 1.269055 1.095008 -0.098016 0.995185 0.000000
-1.035108 1.269055 -0.904992 -0.000000 0.000000 -1.000000
-0.840019 1.288269 -0.904992 -0.000000 0.000000 -1.000000
-0.644928 1.269054 -0.904992 -0.000000 0.000000 -1.000000
-0.457335 1.212149 -0.904992 0.000000 0.000000 -1.000000
-0.284449 1.119739 -0.904992 0.000000 0.000000 -1.000000
-0.132912 0.995376 -0.904992 0.000000 0.000000 -1.000000
-0.008549 0.843839 -0.904992 0.000000 0.000000 -1.000000
0.083861 0.670952 -0.904992 0.000000 0.000000 -1.000000
0.140767 0.483359 -0.904992 0.000000 0.000000 -1.000000
0.159981 0.288269 -0.904992 0.000000 0.000000 -1.000000
0.140767 0.093179 -0.904992 0.000000 0.000000 -1.000000
0.083861 -0.094414 -0.904992 0.000000 0.000000 -1.000000
-0.008549 -0.267301 -0.904992 0.000000 0.000000 -1.000000
-0.132912 -0.418838 -0.904992 0.000000 0.000000 -1.000000
-0.284449 -0.543201 -0.904992 0.000000 0.000000 -1.000000
-0.457335 -0.635611 -0.904992 0.000000 0.000000 -1.000000
-0.644929 -0.692516 -0.904992 0.000000 0.000000 -1.000000
-0.840019 -0.711731 -0.904992 0.000000 0.000000 -1.000000
-1.035110 -0.692516 -0.904992 0.000000 0.000000 -1.000000
-1.222703 -0.635610 -0.904992 0.000000 0.000000 -1.000000
-1.395589 -0.543200 -0.904992 0.000000 0.000000 -1.000000
-1.547126 -0.418837 -0.904992 0.000000 0.000000 -1.000000
-1.671489 -0.267301 -0.904992 0.000000 0.000000 -1.000000
-1.763899 -0.094414 -0.904992 0.000000 0.000000 -1.000000
-1.820804 0.093180 -0.904992 0.000000 0.000000 -1.000000
-1.840019 0.288270 -0.904992 0.000000 -0.000000 -1.000000
-1.820804 0.483360 -0.904992 0.000000 -0.000000 -1.000000
-1.763898 0.670954 -0.904992 0.000000 0.000000 -1.000000
-1.671488 0.843840 -0.904992 0.000000 0.000000 -1.000000
-1.547125 0.995377 -0.904992 0.000000 0.000000 -1.000000
-1.395588 1.119739 -0.904992 0.000000 0.000000 -1.000000
-1.222701 1.212149 -0.904992 0.000000 0.000000 -1.000000
4 0 1 2 3
4 4 5 6 7
4 8 9 10 11
4 12 13 14 15
4 16 17 18 19
4 20 21 22 23
4 24 25 26 27
4 28 29 30 31
4 32 33 34 35
4 36 37 38 39
4 40 41 42 43
4 44 45 46 47
4 48 49 50 51
4 52 53 54 55
4 56 57 58 59
4 60 61 62 63
4 64 65 66 67
4 68 69 70 71
4 72 73 74 75
4 76 77 78 79
4 80 81 82 83
4 84 85 86 87
4 88 89 90 91
4 92 93 94 95
4 96 97 98 99
4 100 101 102 103
4 104 105 106 107
4 108 109 110 111
4 112 113 114 115
4 116 117 118 119
3 120 121 122
3 122 123 124
3 124 125 126
3 126 127 128
3 128 129 130
3 130 131 132
3 132 133 134
3 134 135 136
3 136 137 138
3 138 139 140
3 140 141 142
3 142 143 144
3 144 145 146
3 146 147 148
3 148 149 150
3 150 151 120
3 120 122 124
3 124 126 128
3 128 130 132
3 132 134 136
3 136 138 140
3 140 142 144
3 144 146 148
3 148 150 120
3 120 124 128
3 128 132 136
3 136 140 144
3 144 148 120
3 120 128 136
3 136 144 120
4 152 153 154 155
4 156 157 158 159
3 160 161 162
3 162 163 164
3 164 165 166
3 166 167 168
3 168 169 170
3 170 171 172
3 172 173 174
3 174 175 176
3 176 177 178
3 178 179 180
3 180 181 182
3 182 183 184
3 184 185 186
3 186 187 188
3 188 189 190
3 190 191 160
3 160 162 164
3 164 166 168
3 168 170 172
3 172 174 176
3 176 178 180
3 180 182 184
3 184 186 188
3 188 190 160
3 160 164 168
3 168 172 176
3 176 180 184
3 184 188 160
3 160 168 176
3 176 184 160
